# xmcd CD database file
#
# Track frame offsets:
#	150
#	11000
#	57432
#	80002
#	140012
#	154587
#	181452
#	197872
#	220782
#	241645
#	293657
#
# Disc length: 3978 seconds
#
# Revision: 0
# Processed by: cddbd v1.5.1PL2 Copyright (c) Steve Scherf et al.
# Submitted via: CDex 1.51
#
DISCID=990f880b
DTITLE=Akos S. Unit - Imafa
DYEAR=1998
DGENRE=Jazz
TTITLE0=Alap
TTITLE1=Paprika
TTITLE2=Ertelem
TTITLE3=Ezenkivul
TTITLE4=Keserves
TTITLE5=So
TTITLE6=Kaval
TTITLE7=Ketten
TTITLE8=Addigis
TTITLE9=Azertis
TTITLE10=
EXTD=YEAR: 1998
EXTT0=
EXTT1=
EXTT2=
EXTT3=
EXTT4=
EXTT5=
EXTT6=
EXTT7=
EXTT8=
EXTT9=
EXTT10=
PLAYORDER=
